<svg xmlns="http://www.w3.org/2000/svg" viewBox="0 0 1081 726" role="img" aria-labelledby="title desc">
  <title id="title">Chanda and Dalin C&amp;D logo</title>
  <desc id="desc">A decorative C and D monogram with a small heart in the centre.</desc>
  <path d="M 41 343 L 38 364 L 37 365 L 37 373 L 36 374 L 36 392 L 35 393 L 36 396 L 36 415 L 37 416 L 37 423 L 40 439 L 44 454 L 50 470 L 57 484 L 71 504 L 83 516 L 97 526 L 98 530 L 106 544 L 122 561 L 140 573 L 166 584 L 185 589 L 202 591 L 203 592 L 243 594 L 244 593 L 259 593 L 260 592 L 284 590 L 322 582 L 371 566 L 417 546 L 460 523 L 501 498 L 518 486 L 522 485 L 610 533 L 666 561 L 668 561 L 679 567 L 714 582 L 724 585 L 726 587 L 726 590 L 709 626 L 693 653 L 694 657 L 700 657 L 703 655 L 716 642 L 727 626 L 744 594 L 750 594 L 768 600 L 796 606 L 820 608 L 821 609 L 862 608 L 863 607 L 875 606 L 895 600 L 899 601 L 899 603 L 866 627 L 839 643 L 813 656 L 773 671 L 750 677 L 734 680 L 728 680 L 727 681 L 706 682 L 705 683 L 680 682 L 679 681 L 663 679 L 650 675 L 642 671 L 632 663 L 627 655 L 626 647 L 630 636 L 639 627 L 647 623 L 652 622 L 652 620 L 642 622 L 634 626 L 626 632 L 619 645 L 619 656 L 624 666 L 631 673 L 639 678 L 658 685 L 674 688 L 681 688 L 682 689 L 693 689 L 694 690 L 724 689 L 725 688 L 741 687 L 778 679 L 809 669 L 843 655 L 872 640 L 897 625 L 929 602 L 949 585 L 976 558 L 997 532 L 1018 499 L 1032 469 L 1040 443 L 1044 422 L 1044 412 L 1045 411 L 1045 396 L 1044 395 L 1043 378 L 1040 365 L 1032 344 L 1017 321 L 998 303 L 974 289 L 955 282 L 943 279 L 927 277 L 926 276 L 917 276 L 916 275 L 870 276 L 869 277 L 855 278 L 831 284 L 827 284 L 794 294 L 755 310 L 721 327 L 690 345 L 641 377 L 546 445 L 544 445 L 543 442 L 557 427 L 563 418 L 570 403 L 572 393 L 572 385 L 571 380 L 567 372 L 562 367 L 556 364 L 544 363 L 537 365 L 530 369 L 523 376 L 519 382 L 517 382 L 508 371 L 498 365 L 483 364 L 476 367 L 468 375 L 465 382 L 464 399 L 466 408 L 472 421 L 478 430 L 490 443 L 508 457 L 510 457 L 510 455 L 490 435 L 481 422 L 475 410 L 472 395 L 474 385 L 478 378 L 486 373 L 494 373 L 501 376 L 511 386 L 517 399 L 520 398 L 527 385 L 534 378 L 539 375 L 545 373 L 553 374 L 558 377 L 562 383 L 563 398 L 559 410 L 554 419 L 537 442 L 519 461 L 516 461 L 516 464 L 510 469 L 508 469 L 457 443 L 455 443 L 418 425 L 384 411 L 349 399 L 317 391 L 312 391 L 299 388 L 290 388 L 289 387 L 248 387 L 247 388 L 239 388 L 238 389 L 232 389 L 217 392 L 194 399 L 169 410 L 145 425 L 134 434 L 119 449 L 107 465 L 98 483 L 95 493 L 94 511 L 91 512 L 76 493 L 69 480 L 62 462 L 56 431 L 56 392 L 57 391 L 57 384 L 58 383 L 58 377 L 61 361 L 68 335 L 72 326 L 75 315 L 78 310 L 83 296 L 108 248 L 135 207 L 160 175 L 204 128 L 237 99 L 275 72 L 310 54 L 324 49 L 345 44 L 353 44 L 354 43 L 369 44 L 379 47 L 388 52 L 393 57 L 398 67 L 399 84 L 395 98 L 388 113 L 369 140 L 341 167 L 325 178 L 313 184 L 303 184 L 297 186 L 293 189 L 291 195 L 294 199 L 303 199 L 312 196 L 326 189 L 346 175 L 370 152 L 390 125 L 401 103 L 406 82 L 406 74 L 405 73 L 404 63 L 397 51 L 389 44 L 382 40 L 364 35 L 329 36 L 308 41 L 278 52 L 249 67 L 221 85 L 195 105 L 179 119 L 145 153 L 131 169 L 107 200 L 91 224 L 77 248 L 59 286 L 49 313 Z
M 100 513 L 100 497 L 104 483 L 108 474 L 120 456 L 142 434 L 164 419 L 186 408 L 212 399 L 244 393 L 268 392 L 269 393 L 297 394 L 298 395 L 319 398 L 342 404 L 352 408 L 355 408 L 392 422 L 422 436 L 424 436 L 474 460 L 499 474 L 499 476 L 497 478 L 449 508 L 442 511 L 424 522 L 379 544 L 344 558 L 309 569 L 277 576 L 255 578 L 254 579 L 241 579 L 240 580 L 204 579 L 203 578 L 185 576 L 155 567 L 134 556 L 121 546 L 113 538 L 112 530 L 103 522 Z
M 1025 370 L 1026 384 L 1027 385 L 1027 407 L 1026 408 L 1024 426 L 1012 464 L 1001 487 L 992 502 L 979 521 L 961 544 L 923 583 L 900 593 L 879 599 L 863 601 L 862 602 L 853 602 L 852 603 L 812 602 L 811 601 L 805 601 L 784 597 L 751 588 L 749 586 L 749 583 L 815 456 L 850 395 L 854 390 L 870 362 L 878 351 L 883 340 L 883 336 L 880 333 L 872 334 L 858 346 L 845 363 L 826 392 L 796 445 L 756 525 L 756 527 L 744 550 L 735 571 L 730 579 L 724 578 L 700 568 L 643 540 L 641 540 L 639 538 L 622 530 L 568 500 L 542 487 L 531 480 L 531 478 L 566 454 L 657 388 L 731 339 L 738 336 L 756 325 L 789 309 L 824 296 L 850 289 L 871 285 L 888 284 L 889 283 L 912 283 L 913 284 L 924 284 L 925 285 L 936 286 L 965 295 L 987 308 L 1002 322 L 1011 334 L 1016 343 L 1021 355 Z" fill="#8b1a1a" fill-rule="evenodd"/>
</svg>
